<svg id="Capa_1" enable-background="new 0 0 512.001 512.001" height="24" viewBox="0 0 512.001 512.001" width="24" xmlns="http://www.w3.org/2000/svg"><g><g clip-rule="evenodd" fill-rule="evenodd"><path d="m255.988 85.77-30 37.183v329.047h60v-329.047z" fill="#cef1d0"/><path d="m225.988 122.953 30-37.183 30 37.183v329.047h-60zm110 364.049v-317.003h26.429c11.297.006 17.842-13.854 10.396-23.072l-106.291-131.74c-5.339-6.809-15.439-6.964-20.928-.17l-105.936 131.3c-8.02 8.853-2.077 23.682 9.903 23.682h26.427v317.003c0 8.25 6.75 15 15 15h130c8.25-.001 15-6.75 15-15z" fill="#a0e4a5"/></g><g><path d="m380.597 140.648-106.253-131.693c-4.452-5.64-11.081-8.903-18.199-8.955-.058 0-.114 0-.171 0-7.06 0-13.669 3.176-18.162 8.737l-105.78 131.107c-6.257 7.096-7.795 17.286-3.906 26.056 3.856 8.696 12.07 14.099 21.436 14.099h16.427v307.003c0 13.785 11.215 25 25 25h130c13.785 0 25-11.215 25-25v-307.003h16.425.012c9.045 0 17.146-5.192 21.143-13.551 4.096-8.573 2.956-18.46-2.972-25.8zm-15.075 17.174c-.312.654-1.241 2.177-3.103 2.177-.001 0-.001 0-.002 0h-26.43c-5.522 0-10 4.477-10 10v317.003c0 2.71-2.29 5-5 5h-130c-2.71 0-5-2.29-5-5v-317.003c0-5.523-4.478-10-10-10h-26.427c-1.797 0-2.706-1.199-3.152-2.206-.281-.635-1.066-2.856.661-4.763.128-.141.252-.286.372-.435l105.932-131.294c.866-1.072 1.889-1.301 2.602-1.301h.024c.597.004 1.736.187 2.654 1.358.028.036.058.072.086.108l106.295 131.745c1.526 1.89.851 3.854.488 4.611z"/><path d="m263.771 79.491c-1.898-2.353-4.76-3.721-7.783-3.721s-5.885 1.368-7.783 3.721l-30 37.183c-1.435 1.778-2.217 3.994-2.217 6.279v119.527c0 5.523 4.478 10 10 10s10-4.477 10-10v-115.996l20-24.789 20 24.789v315.516h-40v-109.52c0-5.523-4.478-10-10-10s-10 4.477-10 10v119.52c0 5.523 4.478 10 10 10h60c5.522 0 10-4.477 10-10v-329.047c0-2.285-.782-4.501-2.217-6.279z"/><path d="m225.988 297.484c5.522 0 10-4.477 10-10v-.007c0-5.523-4.478-9.996-10-9.996s-10 4.48-10 10.003 4.478 10 10 10z"/></g></g></svg>